<svg xmlns="http://www.w3.org/2000/svg" width="12" height="12" viewBox="0 0 12 12" fill="none">
  <path opacity="0.5" fill-rule="evenodd" clip-rule="evenodd" d="M9.75017 0C10.3699 0 10.9 0.220059 11.3399 0.660095C11.7799 1.10013 12 1.63022 12 2.24998V9.74994C12 10.3697 11.7799 10.8997 11.3398 11.3398C10.8999 11.7799 10.3698 12 9.75009 12H2.25002C1.63027 12 1.10023 11.7799 0.660105 11.3398C0.220062 10.8997 0 10.3696 0 9.74994V2.24998C0 1.63022 0.220062 1.10021 0.660105 0.660095C1.10023 0.220059 1.63027 0 2.25002 0H9.75017ZM9.69539 6.71084C9.89841 6.62224 10.0001 6.46867 10.0001 6.24993H10.0001V2.49998C10.0001 2.36455 9.95067 2.24733 9.8518 2.14843C9.75269 2.04943 9.63546 1.9999 9.50007 1.9999H5.75016C5.53142 1.9999 5.37768 2.10156 5.28919 2.30463C5.20069 2.51825 5.23711 2.70044 5.39862 2.85149L6.52364 3.97647L2.35165 8.14845C2.25267 8.24734 2.20317 8.36459 2.20317 8.49988C2.20317 8.63522 2.25267 8.75264 2.35165 8.85142L3.14852 9.64842C3.24747 9.74731 3.36467 9.79687 3.50018 9.79687C3.63563 9.79687 3.75272 9.74731 3.8518 9.64842L8.02355 5.47649L9.14849 6.60147C9.24232 6.70033 9.35955 6.74989 9.50004 6.74989C9.56243 6.74989 9.62777 6.73686 9.69539 6.71084Z" fill="white"/>
</svg>